<svg width="Current" height="current" viewBox="0 0 44 44" fill="none" xmlns="http://www.w3.org/2000/svg">
<rect x="0.5" y="0.5" width="43" height="43" rx="3.5" stroke="white"/>
<path d="M17.9997 21.3333H17.333V22.6667H17.9997V21.3333ZM25.9997 22.6667H26.6663V21.3333H25.9997V22.6667ZM23.333 25.3333H22.6663V26.6667H23.333V25.3333ZM25.9997 26.6667H26.6663V25.3333H25.9997V26.6667ZM17.9997 17.3333H17.333V18.6667H17.9997V17.3333ZM20.6663 18.6667H21.333V17.3333H20.6663V18.6667ZM25.9997 12.6667L26.4717 12.1947L26.2757 12H25.9997V12.6667ZM29.9997 16.6667H30.6663V16.3907L30.4717 16.1947L29.9997 16.6667ZM17.9997 22.6667H25.9997V21.3333H17.9997V22.6667ZM23.333 26.6667H25.9997V25.3333H23.333V26.6667ZM17.9997 18.6667H20.6663V17.3333H17.9997V18.6667ZM28.6663 30.6667H15.333V32H28.6663V30.6667ZM14.6663 30V14H13.333V30H14.6663ZM15.333 13.3333H25.9997V12H15.333V13.3333ZM29.333 16.6667V30H30.6663V16.6667H29.333ZM25.5277 13.1387L29.5277 17.1387L30.4717 16.1947L26.4717 12.1947L25.5277 13.1387ZM15.333 30.6667C15.1562 30.6667 14.9866 30.5964 14.8616 30.4714C14.7366 30.3464 14.6663 30.1768 14.6663 30H13.333C13.333 30.5304 13.5437 31.0391 13.9188 31.4142C14.2939 31.7893 14.8026 32 15.333 32V30.6667ZM28.6663 32C29.1968 32 29.7055 31.7893 30.0806 31.4142C30.4556 31.0391 30.6663 30.5304 30.6663 30H29.333C29.333 30.1768 29.2628 30.3464 29.1377 30.4714C29.0127 30.5964 28.8432 30.6667 28.6663 30.6667V32ZM14.6663 14C14.6663 13.8232 14.7366 13.6536 14.8616 13.5286C14.9866 13.4036 15.1562 13.3333 15.333 13.3333V12C14.8026 12 14.2939 12.2107 13.9188 12.5858C13.5437 12.9609 13.333 13.4696 13.333 14H14.6663Z" fill="white"/>
</svg>
