<svg width="current" height="current" viewBox="0 0 44 44" fill="none" xmlns="http://www.w3.org/2000/svg">
<rect x="0.5" y="0.5" width="43" height="43" rx="3.5" stroke="white"/>
<g clip-path="url(#clip0_310_1293)">
<path d="M22.2726 22.689C21.4991 22.689 20.7572 22.9963 20.2102 23.5432C19.6632 24.0902 19.356 24.8321 19.356 25.6056C19.356 26.3792 19.6632 27.121 20.2102 27.668C20.7572 28.215 21.4991 28.5223 22.2726 28.5223C23.0462 28.5223 23.788 28.215 24.335 27.668C24.882 27.121 25.1893 26.3792 25.1893 25.6056C25.1893 24.8321 24.882 24.0902 24.335 23.5432C23.788 22.9963 23.0462 22.689 22.2726 22.689ZM21.0226 25.6056C21.0226 25.2741 21.1543 24.9562 21.3887 24.7217C21.6232 24.4873 21.9411 24.3556 22.2726 24.3556C22.6041 24.3556 22.9221 24.4873 23.1565 24.7217C23.3909 24.9562 23.5226 25.2741 23.5226 25.6056C23.5226 25.9372 23.3909 26.2551 23.1565 26.4895C22.9221 26.7239 22.6041 26.8556 22.2726 26.8556C21.9411 26.8556 21.6232 26.7239 21.3887 26.4895C21.1543 26.2551 21.0226 25.9372 21.0226 25.6056Z" fill="white"/>
<path d="M26.8775 16.5359L24.2283 12.8218L14.4875 20.6034L13.9475 20.5976V20.6059H13.5225V30.6059H31.0225V20.6059H30.2208L28.6258 15.9401L26.8775 16.5359ZM28.46 20.6059H20.1033L26.3275 18.4843L27.5958 18.0784L28.46 20.6059ZM25.2308 17.0976L18.8058 19.2876L23.8941 15.2226L25.2308 17.0976ZM15.1891 27.4134V23.7968C15.5407 23.6722 15.8601 23.4707 16.1239 23.207C16.3877 22.9434 16.5893 22.6241 16.7141 22.2726H27.8308C27.9555 22.6242 28.1571 22.9436 28.421 23.2074C28.6848 23.4713 29.0042 23.6729 29.3558 23.7976V27.4143C29.0042 27.539 28.6848 27.7406 28.421 28.0044C28.1571 28.2683 27.9555 28.5876 27.8308 28.9393H16.7158C16.5909 28.5873 16.3891 28.2677 16.125 28.0037C15.8609 27.7398 15.5411 27.5381 15.1891 27.4134Z" fill="white"/>
</g>
<defs>
<clipPath id="clip0_310_1293">
<rect width="20" height="20" fill="white" transform="translate(12.2725 12.2725)"/>
</clipPath>
</defs>
</svg>
