<svg width="current" height="current" viewBox="0 0 26 28" fill="none" xmlns="http://www.w3.org/2000/svg">
<path d="M20.4285 14C20.4217 13.604 20.4891 13.2106 20.6267 12.8433C20.7643 12.476 20.9692 12.1424 21.2293 11.8624C21.4893 11.5823 21.7991 11.3616 22.1402 11.2134C22.4812 11.0653 22.8465 10.9927 23.2142 11V7C23.2142 6.46957 23.0186 5.96086 22.6703 5.58579C22.322 5.21071 21.8496 5 21.3571 5L4.64279 5C4.15024 5 3.67787 5.21071 3.32959 5.58579C2.98131 5.96086 2.78564 6.46957 2.78564 7L2.78564 11C3.52446 11 4.23302 11.3161 4.75544 11.8787C5.27786 12.4413 5.57136 13.2044 5.57136 14C5.57136 14.7956 5.27786 15.5587 4.75544 16.1213C4.23302 16.6839 3.52446 17 2.78564 17L2.78564 21C2.78564 21.5304 2.98131 22.0391 3.32959 22.4142C3.67787 22.7893 4.15024 23 4.64279 23L21.3571 23C21.8496 23 22.322 22.7893 22.6703 22.4142C23.0186 22.0391 23.2142 21.5304 23.2142 21V17C22.8465 17.0073 22.4812 16.9347 22.1402 16.7866C21.7991 16.6384 21.4893 16.4177 21.2293 16.1376C20.9692 15.8576 20.7643 15.524 20.6267 15.1567C20.4891 14.7894 20.4217 14.396 20.4285 14Z" stroke="#8353E2" stroke-width="2.4" stroke-miterlimit="10" stroke-linecap="square"/>
<path d="M16.7142 11L9.28564 11L9.28564 17H16.7142V11Z" stroke="#8353E2" stroke-width="2.4" stroke-miterlimit="10" stroke-linecap="square"/>
</svg>
